<svg width="132" height="117" viewBox="0 0 132 117" fill="none" xmlns="http://www.w3.org/2000/svg">
<path d="M17.3822 96.4845C14.8458 97.1172 14.9204 96.8799 14.9204 106.015C14.9204 110.958 15.0696 114.596 15.2934 115.071C15.6291 115.664 16.114 115.822 17.9044 115.822H20.1424V112.856V109.89H22.3059C26.6327 109.89 29.4675 107.28 29.4675 103.286C29.4675 100.834 28.8334 99.3317 27.2668 97.9081C25.4018 96.2472 20.9258 95.6145 17.3822 96.4845ZM22.6416 100.834C23.8725 101.309 24.2455 101.863 24.2455 103.247C24.2455 104.552 23.0146 105.54 21.3734 105.54H20.1424V103.247C20.1424 100.241 20.4408 99.9249 22.6416 100.834Z" fill="#F7C548"/>
<path d="M47.8192 105.224C47.9311 114.042 48.043 114.517 50.2064 115.624C51.8103 116.415 55.1673 116.376 56.2491 115.585C56.9205 115.11 57.0697 114.636 56.9951 113.528C56.8832 112.144 56.8086 112.065 55.5403 112.026C53.0785 111.947 52.9666 111.788 52.9666 108.704V105.936H54.4586C55.4657 105.936 56.2118 105.659 56.6967 105.145C57.5546 104.235 57.5919 103.998 57.0697 102.614C56.7713 101.704 56.5102 101.586 54.8316 101.586H52.9666V100.044C52.9666 97.8685 52.2579 97.2358 49.7588 97.2358H47.7073L47.8192 105.224Z" fill="#F7C548"/>
<path d="M34.8762 100.755C31.8175 102.218 30.7358 104.631 31.0342 109.06C31.3326 113.726 34.1302 116.217 39.0538 116.217C40.4712 116.217 42.187 116.02 42.8584 115.782C44.6862 115.11 45.3203 113.212 44.164 111.828C43.6418 111.195 43.4552 111.195 42.2243 111.749C40.5085 112.5 37.5618 112.263 36.5547 111.274C36.1444 110.879 35.8833 110.483 35.9579 110.404C36.0325 110.325 37.6364 110.009 39.576 109.692C44.5743 108.862 44.7608 108.783 45.1338 107.676C45.6187 106.371 45.0592 104.077 43.9402 102.574C42.1497 100.162 37.8602 99.2922 34.8762 100.755ZM39.576 104.354C40.8442 105.105 40.3966 105.817 38.5316 106.094C37.5245 106.252 36.4428 106.45 36.1071 106.568C35.1373 106.885 35.2865 106.054 36.3682 104.947C37.338 103.879 38.3824 103.721 39.576 104.354Z" fill="#F7C548"/>
<path d="M61.0607 0.18911C51.8475 0.940465 44.5739 3.98543 39.9114 9.04718C38.9789 10.0754 37.5615 11.2617 36.7408 11.6967C32.8989 13.7926 29.6538 17.7471 24.9539 26.1306C18.5756 37.5196 12.9059 50.0553 11.4885 56.0662C10.2949 61.0884 10.8544 63.817 13.8757 67.8506C14.659 68.8787 14.659 68.9578 14.0249 69.7092C13.6519 70.1046 12.2718 70.7769 10.8917 71.1723C7.60927 72.0819 5.74425 72.9519 3.80464 74.4546C1.97692 75.8782 0 78.9232 0 80.3072C0 82.4822 2.08882 85.0131 5.03555 86.3972C8.61638 88.0976 16.9344 87.7021 21.9326 85.6063L23.7976 84.8154L24.469 85.6458C26.1475 87.6231 29.1316 88.0581 31.7426 86.6344L33.3838 85.7644L35.0623 86.6344C37.5988 88.0185 40.9558 87.6231 42.9327 85.7249C43.4922 85.2108 43.6787 85.2504 44.9096 86.1203C46.6627 87.3462 49.1619 87.7812 51.6237 87.2276C52.6681 86.9903 54.8315 86.7135 56.3981 86.5949C59.6806 86.3972 62.4408 85.2504 64.6415 83.194L66.0216 81.9286L67.3271 83.1545C69.9382 85.6063 72.9595 86.674 77.7712 86.9903C79.2259 87.0694 81.3148 87.2276 82.4338 87.3858C84.2242 87.5835 84.7464 87.4649 86.5368 86.4763L88.5883 85.3294L89.9311 86.239C92.0573 87.7021 94.8548 87.8603 97.1301 86.5949L98.9578 85.6063L100.04 86.4763C101.793 87.8603 105.038 87.7021 107.127 86.1599L108.731 84.934L110.596 85.6854C115.258 87.544 122.196 88.0581 126.001 86.7926C128.649 85.9226 130.029 84.8549 131.185 82.8777C132.342 80.9004 132.267 79.2791 130.962 77.4205C128.873 74.2964 126.411 72.6751 121.972 71.3701C118.317 70.3024 116.713 69.116 117.832 68.3647C118.018 68.246 118.876 67.0597 119.697 65.7547C121.152 63.4611 121.226 63.1843 121.226 60.3766C121.226 56.5407 119.697 51.558 115.929 43.214C108.022 25.7747 100.226 13.7135 95.4889 11.6176C94.8175 11.3408 93.5866 10.3126 92.766 9.36354C89.8938 6.08131 84.5972 2.95726 79.6362 1.61273C74.638 0.228652 67.2898 -0.324975 61.0607 0.18911ZM71.5794 4.49951C85.194 6.00222 92.393 11.8944 95.5635 24.272C96.2722 27.1192 96.4214 28.5429 96.3841 33.3673C96.3468 39.6155 95.8992 42.1463 93.6239 48.3549C92.5795 51.2021 88.5883 58.2411 87.6931 58.8739C87.5066 58.9925 86.7606 58.2016 86.0519 57.1734C85.3432 56.1057 83.4782 53.8121 81.9116 52.0326C78.4799 48.1572 77.0998 45.9427 76.13 42.7C74.7499 38.2709 74.4888 35.3841 74.4142 24.6674C74.3769 13.1203 74.1531 11.6572 72.2508 9.36354C70.6842 7.46539 69.1921 6.87221 66.0216 6.87221C63.0376 6.87221 61.4337 7.46539 59.979 9.08673C57.9274 11.4199 57.7036 12.804 57.629 24.4697C57.5171 41.1973 56.5846 44.6377 50.3182 51.7953C48.4532 53.9703 46.4762 56.3825 45.954 57.1734C45.4691 58.0039 44.9096 58.6761 44.7231 58.6761C44.2382 58.6761 41.2169 53.9307 39.7995 50.9649C38.1956 47.5245 36.7781 42.8186 36.1813 38.8246C35.5845 35.0282 35.8829 27.752 36.7408 24.272C37.8226 19.8825 40.359 14.7812 42.7835 12.1712C48.4905 6.00222 59.233 3.15498 71.5794 4.49951ZM68.9683 11.7362C70.0501 12.6853 70.2739 14.5044 70.4977 26.447C70.7588 37.3614 70.8707 39.0618 71.5794 41.8695C72.773 46.4567 74.7126 50.0158 78.0323 53.8121C81.2775 57.5293 83.702 60.8116 85.1194 63.382L86.0892 65.122L83.6274 66.3874C80.1957 68.1669 77.8458 70.4605 76.503 73.4264C75.1602 76.3132 74.7499 78.9627 75.3094 80.9795L75.6824 82.4822L74.3023 82.2054C72.0643 81.8099 69.6771 80.0304 68.6699 78.0532L67.812 76.2736L69.9009 72.7146C71.0572 70.7769 72.9968 67.1783 74.1531 64.7265C76.2046 60.4161 76.2419 60.2184 75.7197 59.1902C74.7499 57.2921 71.9524 56.5407 66.0216 56.5407C60.0536 56.5407 57.2933 57.2921 56.3235 59.1902C55.764 60.2579 55.8386 60.4557 58.1512 65.2011C60.2028 69.3928 62.4408 73.4264 63.9701 75.5618C64.2312 75.9177 64.082 76.6296 63.4106 77.9345C62.4408 79.9118 60.1282 81.7309 58.002 82.1658L56.883 82.4031V79.1604C56.883 76.6296 56.6965 75.4432 56.0624 74.0196C54.7942 71.0933 52.1459 68.3647 48.8262 66.6247L45.9167 65.0824L47.2222 62.7888C48.7889 60.0207 50.3182 58.0039 54.1974 53.5748C57.4425 49.8181 59.233 46.4172 60.4639 41.4741C61.1726 38.7059 61.2845 36.7682 61.5083 25.9724C61.7321 14.2671 61.7694 13.5949 62.5154 12.5271C62.963 11.934 63.7836 11.3012 64.3804 11.1431C65.7232 10.8267 68.2596 11.1826 68.9683 11.7362ZM32.7497 23.4811C32.041 26.012 31.9291 27.4751 31.9291 33.1696C31.9664 39.1409 32.041 40.3273 32.8989 43.6886C34.3536 49.3831 36.3678 53.9307 39.5757 58.7948C41.1423 61.207 42.3732 63.382 42.2613 63.6983C42.1494 64.0543 41.3661 64.2124 39.9487 64.2124C30.8101 64.252 23.3127 70.3024 22.5294 78.3695L22.2683 80.8213L20.2914 81.6122C16.4495 83.1149 10.3322 83.6686 7.38547 82.7195C6.60216 82.4822 5.52045 81.8495 4.96095 81.3354L3.99114 80.3863L5.25935 78.9627C5.96806 78.2114 7.04977 77.3018 7.64657 76.9459C9.06398 76.155 14.659 74.4546 14.9201 74.7709C15.032 74.85 14.3233 75.72 13.3162 76.59C11.4512 78.33 11.1528 79.3186 12.1972 80.505C13.0551 81.5331 14.2114 81.375 15.9272 80.07C18.0161 78.4882 19.3962 75.4432 19.3962 72.4773C19.3962 69.551 18.6129 67.3365 16.6733 64.6474C15.2185 62.5911 15.1066 62.2352 15.1066 60.0602C15.1439 58.5575 15.5169 56.5012 16.1884 54.4448C17.3447 50.8067 23.35 37.6382 26.6697 31.5878C28.9451 27.3961 33.2719 20.278 33.4211 20.4361C33.4957 20.4757 33.16 21.8598 32.7497 23.4811ZM103.247 27.4356C108.507 36.61 114.326 48.9876 116.228 55.038C116.75 56.6198 117.16 58.8739 117.16 60.0998C117.198 62.0375 117.048 62.4725 115.631 64.4497C112.908 68.2856 112.162 71.3701 113.169 75.0478C114.139 78.6068 117.16 81.5727 119.249 81.0586C121.04 80.5445 121.114 78.0136 119.324 77.0645C118.391 76.5109 117.123 75.0478 117.123 74.4941C117.123 74.2569 120.144 75.1664 123.352 76.3527C124.21 76.6691 125.628 77.6182 126.523 78.4486C128.351 80.1886 128.276 80.8213 126.075 82.1658C123.501 83.7476 115.146 83.2731 111.192 81.2959C109.924 80.6631 109.85 80.505 109.588 78.0927C109.253 74.7314 107.835 71.8051 105.411 69.4719C102.016 66.1897 97.0555 64.252 92.0573 64.2124C90.416 64.2124 89.8938 64.0543 89.8938 63.6588C89.8938 63.3424 91.0129 61.4047 92.3557 59.3879C99.5546 48.7503 102.315 35.305 99.5919 24.272C99.1816 22.6507 98.8459 21.1084 98.8459 20.9107C98.8459 20.1989 100.636 22.8088 103.247 27.4356ZM72.1762 59.2298C72.8476 59.5461 73.519 60.1788 73.6682 60.6138C73.9293 61.4838 72.9222 64.0147 71.5794 65.7942L70.8707 66.7829L71.2437 65.6756C71.4302 65.0429 71.6167 64.1333 71.6167 63.6193C71.6167 62.2747 69.8636 60.2975 67.7001 59.1902L65.8351 58.2016L68.4088 58.4784C69.8263 58.597 71.5048 58.9529 72.1762 59.2298ZM43.343 68.9974C49.0127 70.3024 52.9665 74.3755 52.9665 79.0023C52.9665 81.5727 51.5118 83.194 49.2365 83.194C48.0055 83.194 47.446 82.9567 46.5881 82.0472C45.954 81.375 45.5064 80.4654 45.5064 79.8722C45.5064 78.8045 44.3501 77.2623 43.5295 77.2623C42.4105 77.2623 41.4034 78.4882 41.4034 79.8722C41.4034 81.7704 40.0233 83.194 38.2329 83.194C36.7781 83.194 35.0623 81.7704 35.0623 80.5841C35.0623 79.5954 33.9433 78.4486 32.9735 78.4486C32.041 78.4486 30.9593 79.7932 30.9593 80.9795C30.9593 83.0358 28.1618 83.9849 27.0801 82.324C26.707 81.8099 26.4832 80.6236 26.4832 79.4372C26.5205 72.2796 34.8758 67.0992 43.343 68.9974ZM98.2118 69.7487C102.837 71.6073 105.56 75.2455 105.56 79.5559C105.56 82.0868 104.889 83.194 103.285 83.194C102.128 83.194 101.084 81.9681 101.084 80.5841C101.084 79.4768 99.853 78.3695 98.7713 78.5277C98.1745 78.6068 97.6896 79.1604 97.1301 80.3863C96.1603 82.5218 95.3397 83.194 93.8104 83.194C92.3184 83.194 90.9756 81.7309 90.6771 79.7536C90.5279 78.7254 90.1549 78.0927 89.4462 77.6973C88.551 77.1436 88.4018 77.1436 87.7304 77.7764C87.3201 78.1718 86.8725 79.0813 86.7606 79.8327C86.2384 82.6008 82.6949 84.1826 80.718 82.4822C78.8156 80.8609 78.5918 78.4486 80.0465 75.3641C80.9418 73.466 82.9187 71.5283 85.3059 70.1837C88.551 68.4042 94.3326 68.2065 98.2118 69.7487Z" fill="black"/>
<path d="M71.5794 4.49951C85.194 6.00222 92.393 11.8944 95.5635 24.272C96.2722 27.1192 96.4214 28.5429 96.3841 33.3673C96.3468 39.6155 95.8992 42.1463 93.6239 48.3549C92.5795 51.2021 88.5883 58.2411 87.6931 58.8739C87.5066 58.9925 86.7606 58.2016 86.0519 57.1734C85.3432 56.1057 83.4782 53.8121 81.9116 52.0326C78.4799 48.1572 77.0998 45.9427 76.13 42.7C74.7499 38.2709 74.4888 35.3841 74.4142 24.6674C74.3769 13.1203 74.1531 11.6572 72.2508 9.36354C70.6842 7.46539 69.1921 6.87221 66.0216 6.87221C63.0376 6.87221 61.4337 7.46539 59.979 9.08673C57.9274 11.4199 57.7036 12.804 57.629 24.4697C57.5171 41.1973 56.5846 44.6377 50.3182 51.7953C48.4532 53.9703 46.4762 56.3825 45.954 57.1734C45.4691 58.0039 44.9096 58.6761 44.7231 58.6761C44.2382 58.6761 41.2169 53.9307 39.7995 50.9649C38.1956 47.5245 36.7781 42.8186 36.1813 38.8246C35.5845 35.0282 35.8829 27.752 36.7408 24.272C37.8226 19.8825 40.359 14.7812 42.7835 12.1712C48.4905 6.00222 59.233 3.15498 71.5794 4.49951Z" fill="#F7C548"/>
<path d="M68.9683 11.7362C70.0501 12.6853 70.2739 14.5044 70.4977 26.447C70.7588 37.3614 70.8707 39.0618 71.5794 41.8695C72.773 46.4567 74.7126 50.0158 78.0323 53.8121C81.2775 57.5293 83.702 60.8116 85.1194 63.382L86.0892 65.122L83.6274 66.3874C80.1957 68.1669 77.8458 70.4605 76.503 73.4264C75.1602 76.3132 74.7499 78.9627 75.3094 80.9795L75.6824 82.4822L74.3023 82.2054C72.0643 81.8099 69.6771 80.0304 68.6699 78.0532L67.812 76.2736L69.9009 72.7146C71.0572 70.7769 72.9968 67.1783 74.1531 64.7265C76.2046 60.4161 76.2419 60.2184 75.7197 59.1902C74.7499 57.2921 71.9524 56.5407 66.0216 56.5407C60.0536 56.5407 57.2933 57.2921 56.3235 59.1902C55.764 60.2579 55.8386 60.4557 58.1512 65.2011C60.2028 69.3928 62.4408 73.4264 63.9701 75.5618C64.2312 75.9177 64.082 76.6296 63.4106 77.9345C62.4408 79.9118 60.1282 81.7309 58.002 82.1658L56.883 82.4031V79.1604C56.883 76.6296 56.6965 75.4432 56.0624 74.0196C54.7942 71.0933 52.1459 68.3647 48.8262 66.6247L45.9167 65.0824L47.2222 62.7888C48.7889 60.0207 50.3182 58.0039 54.1974 53.5748C57.4425 49.8181 59.233 46.4172 60.4639 41.4741C61.1726 38.7059 61.2845 36.7682 61.5083 25.9724C61.7321 14.2671 61.7694 13.5949 62.5154 12.5271C62.963 11.934 63.7836 11.3012 64.3804 11.1431C65.7232 10.8267 68.2596 11.1826 68.9683 11.7362Z" fill="white"/>
<path d="M98.2118 69.7487C102.837 71.6073 105.56 75.2455 105.56 79.5559C105.56 82.0868 104.889 83.194 103.285 83.194C102.128 83.194 101.084 81.9681 101.084 80.5841C101.084 79.4768 99.853 78.3695 98.7713 78.5277C98.1745 78.6068 97.6896 79.1604 97.1301 80.3863C96.1603 82.5218 95.3397 83.194 93.8104 83.194C92.3184 83.194 90.9756 81.7309 90.6771 79.7536C90.5279 78.7254 90.1549 78.0927 89.4462 77.6973C88.551 77.1436 88.4018 77.1436 87.7304 77.7764C87.3201 78.1718 86.8725 79.0813 86.7606 79.8327C86.2384 82.6008 82.6949 84.1826 80.718 82.4822C78.8156 80.8609 78.5918 78.4486 80.0465 75.3641C80.9418 73.466 82.9187 71.5283 85.3059 70.1837C88.551 68.4042 94.3326 68.2065 98.2118 69.7487Z" fill="white"/>
<path d="M43.343 68.9974C49.0127 70.3024 52.9665 74.3755 52.9665 79.0023C52.9665 81.5727 51.5118 83.194 49.2365 83.194C48.0055 83.194 47.446 82.9567 46.5881 82.0472C45.954 81.375 45.5064 80.4654 45.5064 79.8722C45.5064 78.8045 44.3501 77.2623 43.5295 77.2623C42.4105 77.2623 41.4034 78.4882 41.4034 79.8722C41.4034 81.7704 40.0233 83.194 38.2329 83.194C36.7781 83.194 35.0623 81.7704 35.0623 80.5841C35.0623 79.5954 33.9433 78.4486 32.9735 78.4486C32.041 78.4486 30.9593 79.7932 30.9593 80.9795C30.9593 83.0358 28.1618 83.9849 27.0801 82.324C26.707 81.8099 26.4832 80.6236 26.4832 79.4372C26.5205 72.2796 34.8758 67.0992 43.343 68.9974Z" fill="white"/>
<path d="M32.7497 23.4811C32.041 26.012 31.9291 27.4751 31.9291 33.1696C31.9664 39.1409 32.041 40.3273 32.8989 43.6886C34.3536 49.3831 36.3678 53.9307 39.5757 58.7948C41.1423 61.207 42.3732 63.382 42.2613 63.6983C42.1494 64.0543 41.3661 64.2124 39.9487 64.2124C30.8101 64.252 23.3127 70.3024 22.5294 78.3695L22.2683 80.8213L20.2914 81.6122C16.4495 83.1149 10.3322 83.6686 7.38547 82.7195C6.60216 82.4822 5.52045 81.8495 4.96095 81.3354L3.99114 80.3863L5.25935 78.9627C5.96806 78.2114 7.04977 77.3018 7.64657 76.9459C9.06398 76.155 14.659 74.4546 14.9201 74.7709C15.032 74.85 14.3233 75.72 13.3162 76.59C11.4512 78.33 11.1528 79.3186 12.1972 80.505C13.0551 81.5331 14.2114 81.375 15.9272 80.07C18.0161 78.4882 19.3962 75.4432 19.3962 72.4773C19.3962 69.551 18.6129 67.3365 16.6733 64.6474C15.2185 62.5911 15.1066 62.2352 15.1066 60.0602C15.1439 58.5575 15.5169 56.5012 16.1884 54.4448C17.3447 50.8067 23.35 37.6382 26.6697 31.5878C28.9451 27.3961 33.2719 20.278 33.4211 20.4361C33.4957 20.4757 33.16 21.8598 32.7497 23.4811Z" fill="#C5A77C"/>
<path d="M103.247 27.4356C108.507 36.61 114.326 48.9876 116.228 55.038C116.75 56.6198 117.16 58.8739 117.16 60.0998C117.198 62.0375 117.048 62.4725 115.631 64.4497C112.908 68.2856 112.162 71.3701 113.169 75.0478C114.139 78.6068 117.16 81.5727 119.249 81.0586C121.04 80.5445 121.114 78.0136 119.324 77.0645C118.391 76.5109 117.123 75.0478 117.123 74.4941C117.123 74.2569 120.144 75.1664 123.352 76.3527C124.21 76.6691 125.628 77.6182 126.523 78.4486C128.351 80.1886 128.276 80.8213 126.075 82.1658C123.501 83.7476 115.146 83.2731 111.192 81.2959C109.924 80.6631 109.85 80.505 109.588 78.0927C109.253 74.7314 107.835 71.8051 105.411 69.4719C102.016 66.1897 97.0555 64.252 92.0573 64.2124C90.416 64.2124 89.8938 64.0543 89.8938 63.6588C89.8938 63.3424 91.0129 61.4047 92.3557 59.3879C99.5546 48.7503 102.315 35.305 99.5919 24.272C99.1816 22.6507 98.8459 21.1084 98.8459 20.9107C98.8459 20.1989 100.636 22.8088 103.247 27.4356Z" fill="#C5A77C"/>
<path d="M46.0658 20.8711C44.9468 21.3852 43.7532 22.5715 44.0516 22.8879C44.1635 22.967 45.0214 22.7693 45.9539 22.3738C47.6697 21.7411 47.7443 21.7411 49.3855 22.6111C50.3554 23.0856 51.1014 23.2833 51.1014 23.0461C51.1014 22.4924 49.2363 20.7129 48.6395 20.7129C48.3784 20.7129 47.9681 20.6338 47.6697 20.5152C47.4086 20.4361 46.6626 20.5943 46.0658 20.8711Z" fill="black"/>
<path d="M83.6646 20.5943C82.7694 20.792 80.9417 22.4133 80.9417 23.0461C80.9417 23.2833 81.6877 23.0856 82.6575 22.6111C84.2987 21.7411 84.3733 21.7411 86.0891 22.3738C87.9914 23.1252 88.4017 23.0461 87.6184 22.0574C87.1708 21.4643 84.8955 20.1988 84.5971 20.357C84.5225 20.3966 84.1122 20.5152 83.6646 20.5943Z" fill="black"/>
<path d="M46.0287 25.1025C45.3573 25.3002 44.3129 26.0911 43.6788 26.8425C42.7463 27.9893 42.5225 28.622 42.5225 30.0456C42.5225 33.2092 44.0145 35.1074 46.8866 35.5423C49.5349 35.9773 52.1087 33.7628 52.4444 30.7574C52.8547 27.1193 49.423 24.1138 46.0287 25.1025ZM49.1992 30.2829C49.7214 31.2715 49.7214 31.4297 49.0127 32.4578C48.0429 33.8419 46.9985 34.0396 45.8795 33.051C44.947 32.2601 44.7605 30.5597 45.5065 29.6106C46.3271 28.5824 48.5278 28.9779 49.1992 30.2829Z" fill="black"/>
<path d="M82.9932 25.2606C78.4053 27.0006 78.4053 33.486 82.9932 35.3446C86.574 36.8078 90.5279 32.8533 89.4835 28.8592C89.1105 27.4752 86.9097 25.0629 85.9772 25.0629C85.7161 25.0629 85.2685 24.9838 84.9701 24.8652C84.709 24.7861 83.8138 24.9443 82.9932 25.2606ZM86.8351 30.3224C87.2827 31.2715 87.2454 31.5483 86.7605 32.3787C85.9772 33.6442 84.8209 33.9605 83.7392 33.2092C82.5083 32.3787 82.2472 31.1528 82.9932 29.9665C83.4781 29.136 83.8511 28.9779 84.9701 29.0965C86.0518 29.1756 86.4621 29.4524 86.8351 30.3224Z" fill="black"/>
<path d="M64.3804 97.5883C61.1725 98.8538 59.2329 102.017 59.2329 106.13C59.2329 112.18 62.105 115.186 67.9239 115.225C70.2365 115.225 70.9452 115.067 71.7658 114.395C73.4816 112.971 72.7356 109.808 70.9079 110.836C70.4976 111.073 69.3413 111.271 68.3342 111.271C65.8724 111.271 64.3431 109.847 63.9701 107.277C63.2986 102.65 66.8795 99.6051 70.5722 101.622C71.6912 102.215 71.7658 102.215 72.2507 101.543C72.9967 100.436 72.6983 99.012 71.5047 98.0629C70.1992 97.0347 66.4319 96.7974 64.3804 97.5883Z" fill="#1A3B8E"/>
<path d="M76.8387 101.068C75.6451 101.543 75.5332 101.701 75.5332 103.164C75.5332 104.509 75.6451 104.746 76.2792 104.627C79.9346 104.113 80.9044 104.113 81.6131 104.509C83.1798 105.379 82.5456 105.932 79.4124 106.407C75.5705 106.921 74.4888 107.91 74.4888 110.638C74.4888 114.039 76.7641 115.463 81.7623 115.146C83.9258 114.988 84.9702 114.751 85.7162 114.158C86.686 113.406 86.7233 113.209 86.8352 109.175C86.9471 104.192 86.4622 102.571 84.5972 101.543C83.0306 100.673 78.5918 100.436 76.8387 101.068ZM82.4337 110.44C82.4337 111.35 82.2472 111.627 81.4266 111.785C80.1957 112.022 78.7037 111.469 78.7037 110.757C78.7037 109.847 79.5616 109.294 81.0163 109.294C82.3218 109.294 82.4337 109.373 82.4337 110.44Z" fill="#1A3B8E"/>
<path d="M92.7659 101.147C89.9684 102.215 89.8938 102.413 89.8938 108.78V114.435L90.9009 114.87C91.4604 115.107 92.4675 115.186 93.1389 115.028L94.3698 114.79V109.926C94.3698 104.509 94.2206 104.786 97.1301 104.351C98.6967 104.074 98.8459 103.955 98.8459 102.967C98.8459 102.334 98.5848 101.543 98.2491 101.227C97.5404 100.436 94.7428 100.436 92.7659 101.147Z" fill="#1A3B8E"/>
<path d="M103.359 101.464C100.86 102.848 100.189 104.074 100.04 107.435C99.965 109.808 100.077 110.559 100.786 111.864C101.979 114.039 104.255 115.225 107.276 115.225C111.267 115.225 112.796 114.079 112.088 111.666C111.901 110.994 111.64 110.875 111.043 111.073C110.596 111.271 109.29 111.469 108.171 111.548C106.493 111.706 105.896 111.587 105.187 110.955C104.665 110.52 104.329 110.045 104.441 109.926C104.553 109.808 106.231 109.491 108.171 109.215C112.386 108.621 113.207 108.028 112.871 105.814C112.423 102.887 110.335 100.989 107.201 100.712C105.374 100.554 104.702 100.712 103.359 101.464ZM108.097 104.627C108.992 105.576 108.544 106.011 106.455 106.288C105.299 106.446 104.255 106.446 104.143 106.367C104.068 106.249 104.255 105.695 104.59 105.141C105.262 104.034 107.276 103.757 108.097 104.627Z" fill="#1A3B8E"/>
</svg>
